<svg width="43" height="24" viewBox="0 0 43 24" fill="none" xmlns="http://www.w3.org/2000/svg">
<path d="M2.07275 0.270508H39.428V23.7296H2.07275V0.270508Z" fill="#1E88E5"/>
<path d="M1.7145 11.2445H3.50875L3.91333 10.2728H4.81907L5.22256 11.2445H8.75287V10.5017L9.068 11.2478H10.9007L11.2158 10.4906V11.2446H19.9894L19.9853 9.64945H20.155C20.2739 9.65359 20.3086 9.6645 20.3086 9.85994V11.2446H24.8463V10.8733C25.2123 11.0685 25.7816 11.2446 26.5307 11.2446H28.4397L28.8483 10.2728H29.754L30.1535 11.2446H33.8323V10.3215L34.3894 11.2446H37.3373V5.14282H34.4198V5.86343L34.0113 5.14282H31.0177V5.86343L30.6425 5.14282H26.5988C25.9219 5.14282 25.3269 5.23691 24.8463 5.49909V5.14282H22.0558V5.49909C21.75 5.22884 21.3332 5.14282 20.8698 5.14282H10.675L9.99098 6.71876L9.2885 5.14282H6.07744V5.86343L5.72466 5.14282H2.98613L1.71436 8.04388V11.2445H1.7145ZM13.0405 10.3644H11.9639L11.9599 6.93801L10.4371 10.3644H9.51512L7.98844 6.93498V10.3644H5.85252L5.44903 9.38857H3.2625L2.85493 10.3644H1.71436L3.59487 5.98949H5.15512L6.94115 10.1316V5.98949H8.6551L10.0294 8.95734L11.2919 5.98949H13.0403V10.3644L13.0405 10.3644ZM5.09012 8.48059L4.37141 6.7365L3.65668 8.48059H5.09012ZM17.3248 10.3643H13.8167V5.98944H17.3248V6.90046H14.8669V7.68905H17.2659V8.58583H14.8669V9.45954H17.3248V10.3643H17.3248ZM22.2684 7.16772C22.2684 7.86522 21.801 8.22562 21.5285 8.3338C21.7583 8.42087 21.9545 8.57477 22.048 8.70223C22.1962 8.91983 22.2218 9.11418 22.2218 9.50491V10.3643H21.1626L21.1586 9.81262C21.1586 9.54939 21.1839 9.17081 20.9929 8.96033C20.8394 8.80642 20.6055 8.77305 20.2274 8.77305H19.1002V10.3644H18.05V5.98944H20.4654C21.0021 5.98944 21.3975 6.00354 21.737 6.19898C22.0692 6.39442 22.2684 6.67971 22.2684 7.16772ZM20.941 7.81731C20.7966 7.90457 20.626 7.90746 20.4215 7.90746H19.1458V6.93572H20.4389C20.6219 6.93572 20.8128 6.94389 20.9369 7.01462C21.0731 7.07837 21.1573 7.21399 21.1573 7.40137C21.1573 7.59263 21.0772 7.74648 20.941 7.81731ZM23.9526 10.3643H22.8811V5.98944H23.9526V10.3643ZM36.3914 10.3643H34.9032L32.9127 7.08071V10.3643H30.774L30.3654 9.38852H28.1839L27.7874 10.3643H26.5586C26.0481 10.3643 25.4018 10.2519 25.0359 9.88046C24.6668 9.509 24.4748 9.00585 24.4748 8.21028C24.4748 7.56145 24.5895 6.9683 25.0409 6.49956C25.3804 6.15042 25.912 5.98944 26.6357 5.98944H27.6524V6.92686H26.657C26.2738 6.92686 26.0574 6.98364 25.849 7.186C25.67 7.37024 25.5471 7.71844 25.5471 8.17701C25.5471 8.6457 25.6407 8.98369 25.8359 9.20443C25.9975 9.37756 26.2913 9.43006 26.5677 9.43006H27.0393L28.5194 5.98959H30.0929L31.8708 10.1276V5.98964H33.4698L35.3157 9.03653V5.98964H36.3914V10.3644L36.3914 10.3643ZM30.0082 8.48063L29.2815 6.73654L28.5588 8.48063H30.0081H30.0082ZM39.0674 17.35C38.8123 17.7214 38.3152 17.9097 37.6423 17.9097H35.6143V16.9714H37.6341C37.8345 16.9714 37.9747 16.9451 38.0591 16.863C38.0986 16.8268 38.13 16.7826 38.1514 16.7335C38.1728 16.6843 38.1836 16.6313 38.1833 16.5777C38.1833 16.4501 38.1323 16.3489 38.055 16.2883C37.9788 16.2215 37.8679 16.1911 37.685 16.1911C36.699 16.1578 35.4688 16.2215 35.4688 14.8367C35.4688 14.202 35.8735 13.5339 36.9755 13.5339H39.0673L39.0674 12.6633H37.1238C36.5373 12.6633 36.1112 12.8031 35.8095 13.0206V12.6632H32.9348C32.4751 12.6632 31.9356 12.7767 31.6804 13.0206V12.6632H26.547V13.0206C26.1384 12.7271 25.4491 12.6632 25.1309 12.6632H21.7449V13.0206C21.4217 12.7089 20.703 12.6632 20.2649 12.6632H16.4753L15.6082 13.5978L14.796 12.6632H9.13509V18.7692H14.6894L15.5829 17.8198L16.4246 18.7692L19.8483 18.7722V17.3359H20.1849C20.6391 17.3428 21.1749 17.3246 21.6476 17.1212V18.7691H24.4715V17.1776H24.6077C24.7815 17.1776 24.7987 17.1847 24.7987 17.3577V18.7689H33.3771C33.9218 18.7689 34.4911 18.6301 34.8063 18.3782V18.7689H37.5274C38.0937 18.7689 38.6466 18.6899 39.0673 18.4874L39.0674 17.35ZM22.0582 15.0014C22.0582 16.2169 21.1474 16.4679 20.2294 16.4679H18.9192V17.9357H16.8781L15.585 16.4871L14.2412 17.9357H10.0814V13.5597H14.3051L15.5971 14.9941L16.9329 13.5597H20.2884C21.1218 13.5597 22.0582 13.7895 22.0582 15.0014ZM13.7093 17.0153H11.1273V16.1446H13.4328V15.2517H11.1273V14.4562H13.7601L14.9088 15.7314L13.7093 17.0153ZM17.8694 17.5163L16.2572 15.7338L17.8694 14.008V17.5163ZM20.2538 15.5706H18.8968V14.4562H20.2661C20.6452 14.4562 20.9084 14.6101 20.9084 14.9927C20.9084 15.3712 20.6573 15.5706 20.2539 15.5706H20.2538ZM27.3635 13.5597H30.8684V14.4647H28.4093V15.2603H30.8083V16.153H28.4093V17.0237L30.8684 17.0277V17.9357H27.3634V13.5597H27.3635ZM26.016 15.9021C26.2498 15.988 26.4409 16.142 26.5305 16.2694C26.6787 16.4831 26.7002 16.6825 26.7044 17.0682V17.9357H25.6501V17.3882C25.6501 17.1249 25.6755 16.7351 25.4803 16.5316C25.3269 16.3749 25.093 16.3374 24.7099 16.3374H23.5876V17.9357H22.5324V13.5597H24.9569C25.4886 13.5597 25.8758 13.5831 26.2205 13.7662C26.5519 13.9656 26.7603 14.2388 26.7603 14.7379C26.7602 15.4364 26.2924 15.7928 26.016 15.9021L26.016 15.9021ZM25.4225 15.3489C25.282 15.4319 25.1083 15.439 24.904 15.439H23.6282V14.4562H24.9213C25.1083 14.4562 25.2954 14.4602 25.4225 14.5352C25.5585 14.6061 25.6399 14.7416 25.6399 14.9288C25.6399 15.1161 25.5585 15.2669 25.4225 15.3489ZM34.9025 15.6276C35.107 15.8383 35.2166 16.1044 35.2166 16.5547C35.2166 17.4961 34.626 17.9355 33.5669 17.9355H31.5216V16.9972H33.5587C33.7579 16.9972 33.8992 16.9709 33.9877 16.8888C34.0599 16.8212 34.1117 16.7228 34.1117 16.6034C34.1117 16.4759 34.0557 16.3747 33.9835 16.3141C33.9032 16.2473 33.7925 16.2169 33.6096 16.2169C32.6275 16.1836 31.3977 16.2473 31.3977 14.8625C31.3977 14.2278 31.7981 13.5597 32.899 13.5597H35.0043V14.4911H33.0779C32.887 14.4911 32.7628 14.4982 32.6572 14.5701C32.5422 14.641 32.4995 14.7461 32.4995 14.8849C32.4995 15.05 32.5972 15.1623 32.7293 15.2109C32.8401 15.2492 32.9591 15.2605 33.138 15.2605L33.7033 15.2757C34.2734 15.2895 34.6647 15.3877 34.9025 15.6276ZM39.0696 14.4562H37.1556C36.9646 14.4562 36.8376 14.4633 36.7307 14.5352C36.6199 14.6061 36.5772 14.7112 36.5772 14.8501C36.5772 15.0152 36.6708 15.1275 36.8068 15.176C36.9177 15.2144 37.0366 15.2256 37.2116 15.2256L37.7807 15.2408C38.355 15.2549 38.7384 15.3532 38.9721 15.593C39.0147 15.6264 39.0403 15.6638 39.0696 15.7013V14.4562Z" fill="white"/>
</svg>
