<svg width="43" height="24" viewBox="0 0 43 24" fill="none" xmlns="http://www.w3.org/2000/svg">
<path fill-rule="evenodd" clip-rule="evenodd" d="M37.6848 11.965C37.6848 17.6263 33.0605 22.2157 27.3561 22.2157C21.6517 22.2157 17.0273 17.6263 17.0273 11.965C17.0273 6.3036 21.6517 1.71423 27.3561 1.71423C33.0605 1.71423 37.6848 6.3036 37.6848 11.965Z" fill="#F79F1A"/>
<path fill-rule="evenodd" clip-rule="evenodd" d="M24.9431 11.965C24.9431 17.6263 20.3187 22.2157 14.6144 22.2157C8.90997 22.2157 4.28564 17.6263 4.28564 11.965C4.28564 6.3036 8.90997 1.71423 14.6144 1.71423C20.3187 1.71423 24.9431 6.3036 24.9431 11.965Z" fill="#EA001B"/>
<path fill-rule="evenodd" clip-rule="evenodd" d="M20.9857 3.89551C18.5758 5.77208 17.0288 8.68812 17.0288 11.964C17.0288 15.2398 18.5758 18.1581 20.9857 20.0347C23.3956 18.1581 24.9426 15.2398 24.9426 11.964C24.9426 8.68812 23.3956 5.77208 20.9857 3.89551Z" fill="#FF5F01"/>
</svg>
