<svg width="43" height="24" viewBox="0 0 43 24" fill="none" xmlns="http://www.w3.org/2000/svg">
<path d="M5.78271 6C6.85113 6 7.6561 6.29953 8.10986 6.86621C8.52296 7.38234 8.65987 8.11969 8.51709 9.05762C8.20013 11.2017 6.98622 12.2841 4.8833 12.2842H3.87256C3.65456 12.2842 3.46867 12.4528 3.43506 12.6826L3.08643 15.0303C3.05225 15.2599 2.86634 15.4287 2.64795 15.4287H1.12354C0.959903 15.4284 0.835188 15.2731 0.86084 15.1016L2.15186 6.39844C2.18593 6.16914 2.37186 6 2.59033 6H5.78271ZM4.37354 7.88379C4.24304 7.88398 4.13095 7.9848 4.11084 8.12207L3.77295 10.3965H4.25439C5.10072 10.3965 5.97629 10.3967 6.15088 9.17871C6.21479 8.75101 6.16313 8.44182 5.99561 8.2334C5.71459 7.88399 5.17075 7.88379 4.59424 7.88379H4.37354Z" fill="#253B80"/>
<path d="M11.2739 9.42859C12.032 9.42859 12.7917 9.5839 13.1323 10.0487L13.2417 10.1991L13.312 9.78503C13.3327 9.65991 13.4485 9.56726 13.5825 9.56726H15.1558C15.3238 9.56737 15.4522 9.70933 15.4253 9.86511L14.5747 14.9276C14.5392 15.1368 14.3488 15.2909 14.1235 15.2909H12.7065C12.539 15.2909 12.4108 15.1501 12.437 14.993L12.5063 14.5819C12.489 14.6006 11.7136 15.4286 10.3286 15.4286C9.51265 15.4285 8.8265 15.2068 8.34717 14.6757C7.82475 14.0979 7.6109 13.2694 7.76123 12.4032C8.05053 10.6666 9.53553 9.42864 11.2739 9.42859ZM11.647 10.9969C10.7513 10.9971 10.0261 11.5831 9.88428 12.4208C9.8103 12.8318 9.89884 13.2015 10.1313 13.4608C10.3658 13.7217 10.7313 13.8593 11.188 13.8593C12.0975 13.8591 12.8105 13.292 12.9624 12.4471C13.0311 12.038 12.9364 11.6663 12.6968 11.4003C12.4575 11.1369 12.0937 10.9969 11.647 10.9969Z" fill="#253B80"/>
<path d="M23.7218 8.57141H22.1179C21.9649 8.57141 21.8212 8.64959 21.7344 8.7804L19.5224 12.1312L18.5847 8.9112C18.5258 8.70973 18.345 8.57141 18.1403 8.57141H16.5642C16.3727 8.57141 16.2396 8.76386 16.3006 8.94929L18.0672 14.2807L16.4063 16.6918C16.2757 16.8817 16.4073 17.1428 16.6329 17.1428H18.2348C18.3869 17.1428 18.5292 17.0667 18.6154 16.9384L23.9499 9.01995C24.0775 8.83051 23.9464 8.57141 23.7218 8.57141Z" fill="#253B80"/>
<path d="M35.0396 8.94043C35.7995 8.94049 36.5604 9.10883 36.9019 9.61133L37.0132 9.77344L37.0825 9.32617C37.1027 9.19099 37.2178 9.09101 37.353 9.09082H38.9302C39.099 9.09092 39.2284 9.24381 39.2026 9.41211L38.3491 14.8877C38.3138 15.1136 38.1218 15.2802 37.897 15.2803H36.4771C36.3082 15.2803 36.1787 15.1277 36.2046 14.958L36.2749 14.5127C36.2603 14.5297 35.4826 15.4287 34.0913 15.4287C33.2733 15.4286 32.5866 15.1892 32.105 14.6152C31.581 13.9907 31.3671 13.0948 31.5171 12.1582C31.8071 10.28 33.2962 8.94043 35.0396 8.94043ZM29.0825 6.00098C30.1849 6.00099 31.0151 6.29591 31.4829 6.85352C31.909 7.36151 32.0517 8.08773 31.9038 9.01074C31.5761 11.1204 30.324 12.1854 28.1538 12.1855H27.1108C26.886 12.1857 26.6943 12.352 26.6597 12.5781L26.2808 15.0059C26.256 15.1638 26.1221 15.2801 25.9653 15.2803H24.2739C24.1061 15.2801 23.9772 15.1277 24.0034 14.959L25.3364 6.39258C25.3717 6.16709 25.5628 6.00108 25.7876 6.00098H29.0825ZM42.5825 6C42.7506 6 42.8805 6.15325 42.854 6.32227L41.52 14.8877C41.4853 15.1139 41.2938 15.2803 41.0679 15.2803H39.7085C39.5405 15.2803 39.4117 15.1279 39.438 14.959L40.7896 6.23535C40.8103 6.10006 40.9266 6.00049 41.061 6H42.5825ZM35.4116 10.6367C34.5134 10.6369 33.7871 11.2708 33.644 12.1768C33.571 12.6211 33.659 13.0205 33.8921 13.3008C34.1271 13.5827 34.494 13.7323 34.9507 13.7324C35.8627 13.7324 36.5794 13.1185 36.731 12.2051C36.8008 11.7629 36.7053 11.3609 36.4644 11.0732C36.2245 10.7885 35.8596 10.6367 35.4116 10.6367ZM27.6294 7.85449C27.494 7.8545 27.3796 7.95455 27.3589 8.08984L27.0093 10.3281H27.5063C28.3799 10.3281 29.2825 10.3277 29.4624 9.12988C29.5284 8.70905 29.4759 8.4034 29.3032 8.19824C29.0132 7.85469 28.4512 7.85449 27.8569 7.85449H27.6294Z" fill="#179BD7"/>
</svg>
