<svg width="43" height="24" viewBox="0 0 43 24" fill="none" xmlns="http://www.w3.org/2000/svg">
<path fill-rule="evenodd" clip-rule="evenodd" d="M22.1647 9.52721C22.184 6.94606 24.5918 5.14282 28.015 5.14282C29.3496 5.14282 30.4216 5.43103 31.2555 5.732L30.6468 8.54398C29.0961 7.8362 27.7281 7.88593 27.2326 7.95097C26.2314 8.07978 25.7745 8.58606 25.7629 9.06046C25.7295 10.6252 30.6301 10.8191 30.6159 14.3197C30.6031 17.0781 28.2235 18.8571 24.5867 18.8571C23.0372 18.8431 21.5431 18.5217 20.7362 18.1532L21.3629 15.2468C22.1673 15.6192 23.1788 16.1114 24.9187 16.0847C25.9161 16.0694 26.9816 15.6766 26.9919 14.7864C26.9971 14.2049 26.5441 13.7879 25.1954 13.1375C23.8827 12.5037 22.1402 11.4376 22.1647 9.52721ZM37.1046 5.38512H40.0619L42.8571 18.6505H39.654L39.2345 16.67H34.7933L34.07 18.6505H30.4358L35.6311 6.35816C35.8807 5.76898 36.4405 5.38512 37.1046 5.38512ZM37.6129 8.96864L35.7894 13.9499H38.6618L37.6129 8.96864ZM17.7583 5.38512H21.2201L18.3567 18.6505H14.8936L17.7583 5.38512ZM12.635 5.38512H16.2719L10.6609 18.6505H7.00087L4.23913 8.06447C4.07183 7.41281 3.92641 7.17306 3.41678 6.89887C2.58414 6.44998 1.20971 6.03041 0 5.77026L0.0823631 5.38512H5.97519C6.72547 5.38512 7.4011 5.87993 7.57226 6.73691L9.03035 14.4141L12.635 5.38512Z" fill="#1C1972"/>
</svg>
